# xmcd
#
# Track frame offsets: 
#        150
#        19367
#        41930
#        60112
#        81499
#        109459
#        138287
#        153500
#        174500
#        196052
#        221139
#        246802
#        271582
#        283886
#        296739
#        313871
#        337911
#
# Disc length: 4779 seconds
#
# Revision: 0
# Processed by: cddbd v1.5.2PL0 Copyright (c) Steve Scherf et al.
# Submitted via: ExactAudioCopy v1.3
#
DISCID=0412a911
DTITLE=Various Artist - Blues - Golden Age '60s -'70s  vol.05  CD1
DYEAR=2017
DGENRE=Rock
TTITLE0=Led Zeppelin (1970) - Bron-Y-Aur Stomp
TTITLE1=The Doors (1971) - Crawling King Snake
TTITLE2=Bad Company (1975) - Weep No More
TTITLE3=Grand Funk Railroad (1973) - Black Licorice
TTITLE4=Budgie (1975) - Who Do You Want For Your Love
TTITLE5=Pink Floyd (1973) - Money
TTITLE6=Jimi Hendrix (1967) - The Wind Cries Mary
TTITLE7=Lynyrd Skynyrd (1975) - Made In The Shade
TTITLE8=Geordie (1978) - Give It All You Got
TTITLE9=Little Feat (1973) - On Your Way Down
TTITLE10=Free (1970) - All Right Now
TTITLE11=Nazareth (1975) - Whiskey Drinkin' Woman
TTITLE12=Dr. Feelgood (1976) - I Don't Wanna Know
TTITLE13=Wishbone Ash (1977) - Right or Wrong
TTITLE14=Juicy Lucy (1969) - Mississippi Woman
TTITLE15=Rory Gallagher (1976) - Do You Read Me
TTITLE16=Deep Purple (1972) - Space Truckin'
EXTD=
EXTT0=
EXTT1=
EXTT2=
EXTT3=
EXTT4=
EXTT5=
EXTT6=
EXTT7=
EXTT8=
EXTT9=
EXTT10=
EXTT11=
EXTT12=
EXTT13=
EXTT14=
EXTT15=
EXTT16=
PLAYORDER=
